<svg width="36" height="36" viewBox="0 0 36 36" fill="none" xmlns="http://www.w3.org/2000/svg">
<circle cx="18" cy="18" r="18" fill="black"/>
<path d="M11.2929 23.2929C10.9024 23.6834 10.9024 24.3166 11.2929 24.7071C11.6834 25.0976 12.3166 25.0976 12.7071 24.7071L11.2929 23.2929ZM24 13C24 12.4477 23.5523 12 23 12L14 12C13.4477 12 13 12.4477 13 13C13 13.5523 13.4477 14 14 14H22V22C22 22.5523 22.4477 23 23 23C23.5523 23 24 22.5523 24 22L24 13ZM12.7071 24.7071L23.7071 13.7071L22.2929 12.2929L11.2929 23.2929L12.7071 24.7071Z" fill="white"/>
</svg>
