<svg width="37" height="37" viewBox="0 0 37 37" fill="none" xmlns="http://www.w3.org/2000/svg">
<path d="M36.8117 18.405C36.8117 8.24014 28.5716 0 18.4067 0V18.405H36.8117Z" fill="#1C1C1C"/>
<path d="M5.87926 24.1255C2.61173 27.393 1.17553 31.7983 1.57065 36.066C5.83827 36.4611 10.2436 35.0249 13.5111 31.7574C16.7787 28.4898 18.2149 24.0845 17.8198 19.8169C13.5521 19.4217 9.14679 20.858 5.87926 24.1255V24.1255Z" fill="#404040"/>
<path d="M30.9325 24.1255C27.6649 20.858 23.2596 19.4217 18.992 19.8169C18.5969 24.0845 20.0331 28.4898 23.3006 31.7574C26.5681 35.0249 30.9735 36.4611 35.2411 36.066C35.6362 31.7983 34.2 27.393 30.9325 24.1255V24.1255Z" fill="#535353"/>
<path d="M0 18.405C0 8.24014 8.24014 0 18.405 0V18.405H0Z" fill="#050505"/>
</svg>
