<svg width="56" height="320" viewBox="0 0 56 320" fill="none" xmlns="http://www.w3.org/2000/svg">
<path d="M8.70947 272.029C8.66023 271.592 8.45711 271.254 8.1001 271.013C7.74309 270.77 7.29375 270.649 6.75209 270.649C6.3643 270.649 6.02884 270.71 5.74569 270.833C5.46255 270.953 5.2425 271.12 5.08554 271.332C4.93166 271.541 4.85471 271.78 4.85471 272.048C4.85471 272.272 4.90703 272.466 5.01167 272.629C5.11939 272.792 5.25943 272.929 5.43177 273.04C5.6072 273.148 5.79494 273.239 5.99498 273.312C6.19503 273.383 6.38738 273.442 6.57204 273.488L7.49534 273.728C7.79695 273.802 8.10625 273.902 8.42325 274.028C8.74025 274.154 9.03417 274.32 9.305 274.527C9.57583 274.733 9.79435 274.988 9.96054 275.293C10.1298 275.598 10.2144 275.962 10.2144 276.387C10.2144 276.923 10.076 277.398 9.79896 277.814C9.52505 278.229 9.12649 278.557 8.60329 278.797C8.08317 279.037 7.45379 279.157 6.71515 279.157C6.00729 279.157 5.39484 279.045 4.8778 278.82C4.36075 278.595 3.95604 278.277 3.66366 277.864C3.37129 277.449 3.20971 276.956 3.17893 276.387H4.61004C4.63774 276.729 4.74854 277.013 4.94243 277.241C5.1394 277.466 5.39023 277.634 5.69491 277.744C6.00268 277.852 6.33968 277.906 6.70592 277.906C7.10909 277.906 7.46764 277.843 7.78156 277.717C8.09856 277.587 8.34785 277.409 8.52943 277.181C8.71101 276.95 8.8018 276.681 8.8018 276.373C8.8018 276.093 8.72178 275.864 8.56175 275.685C8.40479 275.507 8.19089 275.359 7.92006 275.242C7.6523 275.125 7.34915 275.022 7.01061 274.933L5.89342 274.628C5.13632 274.422 4.53618 274.119 4.093 273.719C3.65289 273.319 3.43284 272.789 3.43284 272.131C3.43284 271.586 3.58057 271.11 3.87602 270.704C4.17148 270.298 4.57157 269.982 5.07631 269.758C5.58104 269.53 6.15041 269.416 6.7844 269.416C7.42455 269.416 7.9893 269.529 8.47865 269.753C8.97107 269.978 9.35886 270.287 9.642 270.681C9.92515 271.072 10.0729 271.521 10.0852 272.029H8.70947ZM19.7717 272.62H18.3314C18.276 272.312 18.1729 272.041 18.0221 271.808C17.8713 271.574 17.6866 271.375 17.4681 271.212C17.2496 271.049 17.0049 270.926 16.7341 270.843C16.4663 270.76 16.1816 270.718 15.88 270.718C15.3353 270.718 14.8475 270.855 14.4166 271.129C13.9888 271.403 13.6503 271.804 13.401 272.334C13.1548 272.863 13.0316 273.509 13.0316 274.273C13.0316 275.042 13.1548 275.692 13.401 276.221C13.6503 276.75 13.9903 277.15 14.4212 277.421C14.8521 277.692 15.3368 277.827 15.8754 277.827C16.1739 277.827 16.4571 277.787 16.7248 277.707C16.9957 277.624 17.2403 277.503 17.4589 277.343C17.6774 277.183 17.862 276.987 18.0128 276.756C18.1667 276.522 18.2729 276.255 18.3314 275.953L19.7717 275.958C19.6948 276.422 19.5455 276.85 19.3239 277.241C19.1054 277.629 18.8238 277.964 18.4791 278.248C18.1375 278.528 17.7466 278.745 17.3065 278.898C16.8664 279.052 16.3863 279.129 15.8662 279.129C15.0475 279.129 14.3181 278.935 13.678 278.548C13.0378 278.157 12.5331 277.598 12.1638 276.872C11.7975 276.145 11.6144 275.279 11.6144 274.273C11.6144 273.263 11.7991 272.397 12.1684 271.674C12.5377 270.947 13.0424 270.39 13.6826 270.002C14.3227 269.612 15.0506 269.416 15.8662 269.416C16.3678 269.416 16.8356 269.489 17.2696 269.633C17.7066 269.775 18.099 269.984 18.4468 270.261C18.7946 270.535 19.0823 270.87 19.3101 271.267C19.5378 271.661 19.6917 272.112 19.7717 272.62ZM21.4786 279V269.545H24.8487C25.5812 269.545 26.189 269.672 26.6722 269.924C27.1585 270.176 27.5216 270.526 27.7617 270.972C28.0017 271.415 28.1218 271.928 28.1218 272.509C28.1218 273.088 28.0002 273.597 27.7571 274.037C27.517 274.474 27.1538 274.814 26.6676 275.058C26.1844 275.301 25.5765 275.422 24.8441 275.422H22.2911V274.194H24.7148C25.1764 274.194 25.5519 274.128 25.8412 273.996C26.1336 273.863 26.3475 273.671 26.4829 273.419C26.6183 273.166 26.686 272.863 26.686 272.509C26.686 272.152 26.6168 271.843 26.4783 271.581C26.3429 271.32 26.129 271.12 25.8366 270.981C25.5473 270.84 25.1672 270.769 24.6963 270.769H22.9051V279H21.4786ZM26.1459 274.734L28.4818 279H26.8568L24.5671 274.734H26.1459ZM38.0703 274.273C38.0703 275.282 37.8856 276.15 37.5163 276.876C37.147 277.6 36.6407 278.157 35.9975 278.548C35.3573 278.935 34.6295 279.129 33.8139 279.129C32.9952 279.129 32.2643 278.935 31.621 278.548C30.9809 278.157 30.4762 277.598 30.1068 276.872C29.7375 276.145 29.5529 275.279 29.5529 274.273C29.5529 273.263 29.7375 272.397 30.1068 271.674C30.4762 270.947 30.9809 270.39 31.621 270.002C32.2643 269.612 32.9952 269.416 33.8139 269.416C34.6295 269.416 35.3573 269.612 35.9975 270.002C36.6407 270.39 37.147 270.947 37.5163 271.674C37.8856 272.397 38.0703 273.263 38.0703 274.273ZM36.6576 274.273C36.6576 273.503 36.533 272.855 36.2837 272.329C36.0375 271.8 35.6989 271.4 35.2681 271.129C34.8403 270.855 34.3555 270.718 33.8139 270.718C33.2691 270.718 32.7829 270.855 32.3551 271.129C31.9273 271.4 31.5887 271.8 31.3394 272.329C31.0932 272.855 30.9701 273.503 30.9701 274.273C30.9701 275.042 31.0932 275.692 31.3394 276.221C31.5887 276.747 31.9273 277.147 32.3551 277.421C32.7829 277.692 33.2691 277.827 33.8139 277.827C34.3555 277.827 34.8403 277.692 35.2681 277.421C35.6989 277.147 36.0375 276.747 36.2837 276.221C36.533 275.692 36.6576 275.042 36.6576 274.273ZM39.8488 279V269.545H41.2753V277.772H45.5593V279H39.8488ZM47.1867 279V269.545H48.6131V277.772H52.8972V279H47.1867Z" fill="black" fill-opacity="0.75"/>
<path d="M28 0L28 252" stroke="black" stroke-opacity="0.75"/>
<path d="M28 297V320" stroke="black" stroke-opacity="0.75"/>
</svg>
